<svg width="327" height="106" viewBox="0 0 327 106" fill="none" xmlns="http://www.w3.org/2000/svg">
<path d="M64.4187 62.2949C63.7914 61.0018 62.8427 59.5399 61.4075 58.0677C60.1609 56.7889 58.9218 55.8865 57.7917 55.2498C55.043 53.7012 54.8362 55.7074 54.8362 55.7074L55.056 51.914L52.9388 45.7604L61.4075 41.392C61.4075 41.392 68.7264 44.2887 71.9935 47.9323C75.5641 51.9143 77.6393 60.518 77.6393 60.518L74.1107 67.4791L67.9595 64.774L63.6768 65.1886C63.6768 65.1886 65.6614 64.8567 64.4187 62.2949Z" fill="#3FA6E1"/>
<path d="M52.9388 45.7604C52.9388 45.7604 63.4806 47.887 67.7591 52.276C72.0376 56.6651 74.1107 67.4791 74.1107 67.4791M52.9388 45.7604L55.056 51.914M52.9388 45.7604L61.4075 41.392C61.4075 41.392 68.7264 44.2887 71.9935 47.9323C75.5641 51.9143 77.6393 60.518 77.6393 60.518L74.1107 67.4791M74.1107 67.4791L67.9595 64.774M67.9595 64.774L63.6768 65.1886C63.6768 65.1886 65.6614 64.8567 64.4187 62.2949C63.7914 61.0018 62.8427 59.5399 61.4075 58.0677C60.1609 56.7889 58.9218 55.8865 57.7917 55.2498C55.043 53.7012 54.8362 55.7074 54.8362 55.7074L55.056 51.914M67.9595 64.774L69.8763 63.1354C69.8763 63.1354 69.9204 58.8369 65.6419 54.4479C61.3634 50.0588 57.1732 50.1041 57.1732 50.1041L55.056 51.914" stroke="#3FA6E1" stroke-width="1.66667"/>
<path d="M52.9388 45.7604L52.5585 45.0189L51.9158 45.3486L52.1508 46.0315L52.9388 45.7604ZM74.1107 67.4792L73.7752 68.242L74.4973 68.5596L74.8539 67.8559L74.1107 67.4792ZM90.3424 29.1094L90.9531 28.5424L90.9007 28.4859L90.8388 28.44L90.3424 29.1094ZM57.1731 50.1042L57.1641 49.2709L56.8616 49.2742L56.6317 49.4707L57.1731 50.1042ZM69.8763 63.1354L70.4178 63.7688L70.7057 63.5227L70.7096 63.144L69.8763 63.1354ZM54.8361 55.7075L54.0042 55.6593L54.0037 55.6683L54.8361 55.7075ZM63.6767 65.1886L63.7517 66.0186L63.7571 66.0181L63.6767 65.1886ZM64.4187 62.2949L65.1684 61.9312L64.4187 62.2949ZM57.7917 55.2498L57.3826 55.9759L57.3826 55.9759L57.7917 55.2498ZM40.3447 79.2047C40.0234 79.5343 40.0301 80.0619 40.3597 80.3832C40.6892 80.7044 41.2168 80.6977 41.5381 80.3681L40.3447 79.2047ZM88.2252 27.6615L88.6804 26.9634L88.2753 26.6992L87.8449 26.92L88.2252 27.6615ZM92.4596 31.2812L93.2029 31.658L93.4754 31.1205L93.0502 30.6934L92.4596 31.2812ZM93.7747 24.5385L93.3316 25.2443L93.3316 25.2443L93.7747 24.5385ZM90.9617 29.7764L90.351 30.3434L90.3608 30.354L90.3711 30.3643L90.9617 29.7764ZM95.0241 25.8443L94.2842 26.2277L94.2842 26.2277L95.0241 25.8443ZM92.3571 25.8443L92.9396 26.4403L93.5927 25.8019L92.8973 25.2098L92.3571 25.8443ZM93.6093 27.0722L94.2447 26.533L93.6533 25.8361L93.0139 26.4892L93.6093 27.0722ZM91.2259 24.0417L91.8072 24.6388L91.2259 24.0417ZM95.2825 28.2018L95.9012 28.7601L95.9012 28.7601L95.2825 28.2018ZM52.9388 45.7604C52.774 46.5773 52.7739 46.5773 52.7738 46.5773C52.7739 46.5773 52.7739 46.5773 52.774 46.5773C52.7741 46.5773 52.7744 46.5774 52.7749 46.5775C52.7758 46.5777 52.7774 46.578 52.7796 46.5784C52.7839 46.5793 52.7908 46.5807 52.8002 46.5827C52.8188 46.5865 52.8472 46.5925 52.8848 46.6005C52.9601 46.6165 53.0722 46.6408 53.2172 46.6734C53.5072 46.7386 53.9283 46.8371 54.4477 46.969C55.4873 47.233 56.9167 47.6299 58.4757 48.1611C61.6356 49.2379 65.1722 50.8162 67.1624 52.8577L68.3558 51.6943C66.0674 49.3469 62.1939 47.6673 59.0133 46.5835C57.402 46.0345 55.9285 45.6255 54.8579 45.3536C54.3221 45.2175 53.8862 45.1155 53.583 45.0473C53.4314 45.0132 53.3129 44.9876 53.2316 44.9703C53.191 44.9616 53.1596 44.9551 53.1381 44.9506C53.1274 44.9484 53.1191 44.9467 53.1133 44.9455C53.1104 44.9449 53.1081 44.9445 53.1065 44.9441C53.1057 44.944 53.105 44.9438 53.1046 44.9437C53.1043 44.9437 53.1041 44.9436 53.1039 44.9436C53.1037 44.9436 53.1036 44.9435 52.9388 45.7604ZM67.1624 52.8577C69.1549 54.9017 70.6958 58.5354 71.7465 61.7802C72.2649 63.3811 72.6522 64.8488 72.9098 65.9164C73.0385 66.4497 73.1346 66.8822 73.1983 67.1801C73.2301 67.3291 73.2539 67.4444 73.2695 67.5218C73.2773 67.5605 73.2831 67.5897 73.2869 67.6089C73.2888 67.6185 73.2902 67.6256 73.2911 67.6302C73.2915 67.6325 73.2918 67.6341 73.292 67.6351C73.2921 67.6356 73.2922 67.6359 73.2922 67.6361C73.2922 67.6361 73.2922 67.6361 73.2922 67.6362C73.2922 67.6361 73.2922 67.6361 74.1107 67.4792C74.9291 67.3223 74.9291 67.3221 74.929 67.3219C74.929 67.3218 74.9289 67.3215 74.9289 67.3213C74.9288 67.3208 74.9287 67.3201 74.9285 67.3193C74.9282 67.3177 74.9278 67.3154 74.9272 67.3124C74.926 67.3066 74.9244 67.2981 74.9222 67.2871C74.9179 67.2651 74.9115 67.2331 74.9031 67.1915C74.8863 67.1084 74.8613 66.987 74.8281 66.8317C74.7618 66.5212 74.6625 66.0744 74.53 65.5254C74.2652 64.4282 73.8668 62.918 73.3321 61.2668C72.2767 58.0073 70.6418 54.0394 68.3558 51.6943L67.1624 52.8577ZM57.1731 50.1042C57.1822 50.9375 57.1817 50.9375 57.1813 50.9375C57.1812 50.9375 57.1808 50.9375 57.1806 50.9375C57.1802 50.9375 57.1798 50.9375 57.1795 50.9375C57.1788 50.9375 57.1784 50.9375 57.1783 50.9375C57.178 50.9375 57.1786 50.9375 57.1803 50.9375C57.1836 50.9375 57.1908 50.9376 57.2018 50.9378C57.2238 50.9384 57.2608 50.9396 57.3119 50.9426C57.4142 50.9487 57.5725 50.962 57.7792 50.991C58.1927 51.0488 58.7986 51.1691 59.5351 51.4192C61.0046 51.9182 63.0057 52.9375 65.0452 55.0296L66.2386 53.8662C63.9995 51.5693 61.7663 50.4167 60.071 49.8411C59.2252 49.5538 58.5161 49.4112 58.0102 49.3404C57.7572 49.305 57.5548 49.2875 57.4112 49.2789C57.3393 49.2747 57.2822 49.2726 57.2407 49.2716C57.2199 49.2711 57.2031 49.2709 57.1903 49.2709C57.1839 49.2708 57.1785 49.2708 57.1741 49.2708C57.172 49.2708 57.17 49.2708 57.1684 49.2708C57.1675 49.2709 57.1668 49.2709 57.1661 49.2709C57.1657 49.2709 57.1652 49.2709 57.165 49.2709C57.1646 49.2709 57.1641 49.2709 57.1731 50.1042ZM65.0452 55.0296C67.085 57.1222 68.0816 59.1785 68.5705 60.6935C68.8154 61.4524 68.9334 62.0775 68.9903 62.5051C69.0187 62.7188 69.0318 62.8829 69.0378 62.9893C69.0408 63.0425 69.0421 63.0813 69.0426 63.1045C69.0429 63.1162 69.0429 63.1239 69.043 63.1277C69.043 63.1296 69.043 63.1305 69.043 63.1303C69.043 63.1303 69.043 63.1299 69.043 63.1294C69.043 63.1291 69.043 63.1287 69.043 63.1283C69.043 63.1281 69.043 63.1277 69.043 63.1276C69.043 63.1273 69.043 63.1269 69.8763 63.1354C70.7096 63.144 70.7096 63.1436 70.7096 63.1431C70.7096 63.1429 70.7096 63.1425 70.7096 63.1421C70.7096 63.1415 70.7096 63.1407 70.7096 63.1399C70.7096 63.1383 70.7096 63.1364 70.7096 63.1342C70.7096 63.1299 70.7096 63.1246 70.7096 63.1182C70.7095 63.1054 70.7093 63.0885 70.7089 63.0676C70.7079 63.0258 70.706 62.9679 70.7018 62.895C70.6936 62.7492 70.6767 62.5432 70.6424 62.2853C70.5738 61.7698 70.4355 61.046 70.1566 60.1817C69.5979 58.4501 68.4773 56.1627 66.2386 53.8662L65.0452 55.0296ZM54.0037 55.6683L53.5178 65.9921L55.1826 66.0704L55.6686 55.7467L54.0037 55.6683ZM60.8108 58.6494C62.1804 60.0543 63.0786 61.4418 63.6689 62.6586L65.1684 61.9312C64.5042 60.562 63.5049 59.0254 62.0043 57.486L60.8108 58.6494ZM63.6689 62.6586C64.2061 63.766 63.9293 64.103 63.8773 64.1645C63.816 64.237 63.7296 64.2922 63.6402 64.3304C63.598 64.3484 63.5625 64.3594 63.5412 64.3652C63.5308 64.368 63.5246 64.3694 63.5238 64.3695C63.5234 64.3696 63.5243 64.3694 63.5269 64.3689C63.5281 64.3687 63.5298 64.3684 63.5318 64.368C63.5329 64.3678 63.534 64.3676 63.5353 64.3674C63.5359 64.3673 63.5365 64.3672 63.5372 64.3671C63.5375 64.367 63.5381 64.3669 63.5382 64.3669C63.5387 64.3668 63.5393 64.3667 63.6767 65.1886C63.8142 66.0106 63.8148 66.0105 63.8153 66.0104C63.8155 66.0103 63.8161 66.0103 63.8165 66.0102C63.8173 66.01 63.8181 66.0099 63.819 66.0098C63.8207 66.0095 63.8225 66.0091 63.8245 66.0088C63.8285 66.0081 63.8329 66.0073 63.8379 66.0063C63.8479 66.0044 63.8599 66.002 63.8737 65.9991C63.9013 65.9931 63.9366 65.9848 63.978 65.9736C64.0603 65.9512 64.1702 65.9163 64.2946 65.8632C64.5386 65.759 64.8706 65.5711 65.1502 65.2404C65.7798 64.4955 65.874 63.3856 65.1684 61.9312L63.6689 62.6586ZM54.8361 55.7075C55.6651 55.7929 55.665 55.7935 55.665 55.7941C55.665 55.7943 55.6649 55.7948 55.6649 55.7952C55.6648 55.7959 55.6647 55.7966 55.6646 55.7973C55.6645 55.7986 55.6643 55.7998 55.6642 55.801C55.664 55.8032 55.6637 55.8051 55.6635 55.8066C55.6632 55.8095 55.6629 55.811 55.6629 55.8111C55.6629 55.8113 55.6636 55.8064 55.6655 55.7976C55.6694 55.7793 55.6771 55.7492 55.6903 55.7145C55.7191 55.6387 55.7568 55.5853 55.7953 55.5553C55.816 55.5392 55.8909 55.4831 56.1095 55.4991C56.3504 55.5168 56.7576 55.6237 57.3826 55.9759L58.2007 54.5238C56.7233 53.6914 55.5689 53.6189 54.771 54.2406C54.4142 54.5185 54.2284 54.8699 54.1325 55.1219C54.0834 55.2511 54.0535 55.3656 54.0353 55.4509C54.0261 55.494 54.0198 55.5307 54.0154 55.5595C54.0132 55.574 54.0114 55.5865 54.0101 55.597C54.0094 55.6022 54.0089 55.6069 54.0084 55.6111C54.0082 55.6132 54.0079 55.6151 54.0077 55.617C54.0076 55.6179 54.0076 55.6187 54.0075 55.6196C54.0074 55.62 54.0074 55.6206 54.0073 55.6208C54.0073 55.6214 54.0072 55.622 54.8361 55.7075ZM57.3826 55.9759C58.4454 56.5746 59.621 57.4288 60.8108 58.6494L62.0043 57.486C60.7009 56.149 59.3982 55.1985 58.2007 54.5238L57.3826 55.9759ZM53.3191 46.5019L88.6056 28.4029L87.8449 26.92L52.5585 45.0189L53.3191 46.5019ZM91.7163 30.9045L73.3674 67.1024L74.8539 67.8559L93.2029 31.658L91.7163 30.9045ZM77.6393 60.518C78.4565 60.3549 78.4565 60.3548 78.4564 60.3546C78.4564 60.3544 78.4564 60.3542 78.4563 60.354C78.4562 60.3535 78.4561 60.3529 78.456 60.3522C78.4557 60.3508 78.4553 60.3488 78.4548 60.3462C78.4537 60.3412 78.4523 60.334 78.4504 60.3247C78.4466 60.3061 78.441 60.2792 78.4336 60.2444C78.4189 60.1747 78.3971 60.0733 78.3681 59.9438C78.3101 59.6847 78.2233 59.3126 78.1071 58.8556C77.875 57.9425 77.5245 56.6858 77.0504 55.3118C76.1167 52.6056 74.6523 49.2864 72.564 47.3249L71.4229 48.5397C73.1913 50.2007 74.5499 53.1744 75.4749 55.8554C75.9302 57.175 76.268 58.3856 76.4918 59.2662C76.6037 59.7061 76.6868 60.0626 76.7417 60.3079C76.7691 60.4305 76.7895 60.5252 76.8029 60.5886C76.8096 60.6203 76.8145 60.6442 76.8177 60.6597C76.8193 60.6675 76.8205 60.6732 76.8212 60.6768C76.8216 60.6786 76.8218 60.6799 76.822 60.6806C76.822 60.681 76.8221 60.6812 76.8221 60.6813C76.8221 60.6813 76.8221 60.6813 76.8221 60.6813C76.8221 60.6813 76.8221 60.6812 77.6393 60.518ZM81.0833 53.724C81.8663 54.0089 81.8666 54.0081 81.8669 54.0073C81.867 54.0071 81.8673 54.0062 81.8675 54.0057C81.8679 54.0045 81.8684 54.0034 81.8688 54.0022C81.8696 53.9998 81.8705 53.9972 81.8715 53.9945C81.8733 53.9892 81.8753 53.9832 81.8774 53.9767C81.8817 53.9637 81.8865 53.9484 81.8915 53.9309C81.9017 53.8959 81.9132 53.8518 81.9247 53.7988C81.9477 53.6927 81.9706 53.5512 81.9829 53.3748C82.0077 53.0209 81.9895 52.5328 81.8505 51.9127C81.5726 50.673 80.817 48.9297 78.9918 46.6829L77.6982 47.7338C79.4017 49.8307 80.0152 51.3452 80.2242 52.2774C80.3287 52.7433 80.3335 53.0696 80.3203 53.2587C80.3137 53.3537 80.3024 53.4159 80.2959 53.4455C80.2927 53.4604 80.2907 53.4672 80.291 53.4661C80.2912 53.4655 80.2919 53.463 80.2934 53.4585C80.2941 53.4562 80.2951 53.4535 80.2962 53.4502C80.2967 53.4486 80.2974 53.4468 80.298 53.445C80.2984 53.444 80.2987 53.4431 80.2991 53.4421C80.2992 53.4416 80.2995 53.4408 80.2996 53.4405C80.2999 53.4398 80.3002 53.439 81.0833 53.724ZM84.0191 47.9323C84.8005 47.6428 84.8005 47.6427 84.8004 47.6425C84.8004 47.6424 84.8003 47.6422 84.8002 47.6421C84.8001 47.6417 84.8 47.6413 84.7998 47.6407C84.7994 47.6397 84.7989 47.6383 84.7982 47.6366C84.7969 47.6331 84.7951 47.6282 84.7927 47.622C84.788 47.6095 84.7812 47.5916 84.7724 47.5685C84.7547 47.5223 84.7288 47.4552 84.6947 47.3694C84.6267 47.1977 84.5263 46.9504 84.395 46.6432C84.1326 46.0293 83.7458 45.1739 83.2464 44.2028C82.2533 42.2722 80.7902 39.8353 78.9417 37.9391L77.7483 39.1025C79.4285 40.8261 80.8024 43.095 81.7642 44.9651C82.2422 45.8944 82.6123 46.7132 82.8625 47.2983C82.9874 47.5907 83.0822 47.8242 83.1453 47.9834C83.1768 48.0629 83.2004 48.1239 83.2159 48.1643C83.2236 48.1845 83.2293 48.1995 83.2329 48.2092C83.2347 48.214 83.2361 48.2175 83.2368 48.2196C83.2372 48.2207 83.2375 48.2214 83.2376 48.2217C83.2377 48.2219 83.2377 48.222 83.2377 48.222C83.2377 48.222 83.2377 48.222 83.2377 48.222C83.2377 48.2219 83.2376 48.2218 84.0191 47.9323ZM86.9549 42.1406C87.6742 41.7199 87.6742 41.7198 87.6741 41.7197C87.6741 41.7196 87.674 41.7195 87.674 41.7194C87.6739 41.7192 87.6737 41.719 87.6736 41.7188C87.6734 41.7184 87.673 41.7178 87.6727 41.7172C87.6719 41.7159 87.671 41.7143 87.6698 41.7124C87.6675 41.7085 87.6644 41.7032 87.6604 41.6966C87.6525 41.6834 87.6413 41.6648 87.6269 41.6412C87.5981 41.594 87.5563 41.5267 87.5022 41.4423C87.3941 41.2734 87.2362 41.0354 87.033 40.751C86.6275 40.1839 86.0361 39.4251 85.2933 38.6631L84.0999 39.8265C84.7685 40.5124 85.3063 41.2015 85.6771 41.7203C85.862 41.979 86.0041 42.1933 86.0988 42.3413C86.1462 42.4152 86.1816 42.4724 86.2046 42.51C86.2161 42.5288 86.2245 42.5427 86.2297 42.5514C86.2323 42.5558 86.2341 42.5588 86.2351 42.5605C86.2356 42.5613 86.2359 42.5618 86.2359 42.5619C86.236 42.562 86.236 42.562 86.2359 42.5619C86.2359 42.5619 86.2358 42.5618 86.2358 42.5617C86.2358 42.5616 86.2357 42.5616 86.2357 42.5615C86.2357 42.5615 86.2356 42.5614 86.9549 42.1406ZM87.7701 28.3595L89.1334 29.2485L90.0437 27.8524L88.6804 26.9634L87.7701 28.3595ZM89.0922 29.2198L89.8461 29.7788L90.8388 28.44L90.0849 27.881L89.0922 29.2198ZM89.7317 29.6764L90.351 30.3434L91.5724 29.2094L90.9531 28.5424L89.7317 29.6764ZM90.3711 30.3643L91.869 31.8691L93.0502 30.6934L91.5523 29.1885L90.3711 30.3643ZM95.764 25.461C95.3528 24.6673 94.905 24.2641 94.2178 23.8327L93.3316 25.2443C93.8327 25.5589 94.0416 25.7594 94.2842 26.2277L95.764 25.461ZM63.7571 66.0181L68.0398 65.6034L67.8792 63.9445L63.5964 64.3592L63.7571 66.0181ZM67.624 65.5368L73.7752 68.242L74.4461 66.7163L68.295 64.0112L67.624 65.5368ZM52.1508 46.0315L54.268 52.1852L55.844 51.643L53.7268 45.4893L52.1508 46.0315ZM54.224 51.8659L54.0042 55.6593L55.6681 55.7557L55.8879 51.9623L54.224 51.8659ZM56.6317 49.4707L54.5145 51.2806L55.5975 52.5475L57.7146 50.7376L56.6317 49.4707ZM68.501 65.4074L70.4178 63.7688L69.3348 62.502L67.418 64.1406L68.501 65.4074ZM54.4252 66.8612L63.7517 66.0186L63.6018 64.3587L54.2752 65.2013L54.4252 66.8612ZM53.7535 65.4496L40.3447 79.2047L41.5381 80.3681L54.947 66.6129L53.7535 65.4496ZM90.1711 29.1464L92.9396 26.4403L91.7746 25.2484L89.0061 27.9545L90.1711 29.1464ZM91.5571 30.3594L94.2048 27.6552L93.0139 26.4892L90.3662 29.1934L91.5571 30.3594ZM92.3571 25.8443C92.8973 25.2098 92.8974 25.2099 92.8975 25.21C92.8975 25.21 92.8976 25.2101 92.8977 25.2101C92.8977 25.2102 92.8978 25.2102 92.8978 25.2102C92.8979 25.2103 92.8979 25.2103 92.8977 25.2102C92.8975 25.21 92.8969 25.2094 92.8959 25.2086C92.894 25.2069 92.8907 25.2041 92.886 25.2001C92.8768 25.192 92.8623 25.1794 92.8436 25.1627C92.8061 25.1293 92.7519 25.0802 92.6877 25.0196C92.5573 24.8966 92.3949 24.7347 92.2501 24.5668C92.0952 24.387 92.004 24.25 91.97 24.1737C91.9534 24.1362 91.9763 24.1694 91.9758 24.2531C91.9751 24.3627 91.932 24.5173 91.8072 24.6388L90.6447 23.4445C90.1257 23.9497 90.3347 24.598 90.4471 24.8508C90.5822 25.1546 90.8025 25.4402 90.9879 25.6551C91.1834 25.8819 91.3901 26.0867 91.5437 26.2317C91.6215 26.3051 91.6879 26.3653 91.7357 26.4078C91.7595 26.429 91.7789 26.446 91.7927 26.458C91.7996 26.464 91.8051 26.4688 91.8092 26.4723C91.8112 26.474 91.8129 26.4754 91.8142 26.4765C91.8148 26.4771 91.8154 26.4776 91.8158 26.4779C91.8161 26.4781 91.8163 26.4783 91.8164 26.4784C91.8165 26.4785 91.8166 26.4786 91.8167 26.4787C91.8168 26.4787 91.8169 26.4788 92.3571 25.8443ZM91.8072 24.6388C91.7363 24.7078 91.6881 24.6932 91.7658 24.6866C91.8413 24.6801 91.9709 24.6881 92.155 24.7316C92.5221 24.8185 92.9615 25.0119 93.3316 25.2443L94.2178 23.8327C93.7238 23.5226 93.1161 23.2463 92.5386 23.1097C92.2503 23.0415 91.9332 22.9994 91.6232 23.026C91.3154 23.0524 90.9429 23.1542 90.6447 23.4445L91.8072 24.6388ZM93.6093 27.0722C92.9739 27.6114 92.974 27.6115 92.9741 27.6116C92.9741 27.6116 92.9742 27.6117 92.9743 27.6118C92.9744 27.6119 92.9746 27.6121 92.9747 27.6123C92.9751 27.6128 92.9755 27.6133 92.976 27.6139C92.977 27.6151 92.9784 27.6166 92.98 27.6185C92.9833 27.6224 92.9879 27.6277 92.9935 27.6343C93.0049 27.6474 93.021 27.6659 93.0413 27.6889C93.0816 27.7346 93.1389 27.7985 93.2086 27.8735C93.3463 28.0216 93.5399 28.221 93.7518 28.4108C93.9522 28.5903 94.2171 28.8054 94.494 28.9434C94.6303 29.0113 94.8325 29.0931 95.0698 29.1031C95.3389 29.1144 95.6582 29.0293 95.9012 28.7601L94.6639 27.6435C94.8147 27.4764 95.0127 27.4325 95.1399 27.4379C95.2353 27.4419 95.2752 27.4705 95.2374 27.4517C95.166 27.4161 95.0356 27.3232 94.8638 27.1693C94.7035 27.0257 94.5478 26.8662 94.4293 26.7387C94.3709 26.6759 94.3234 26.6229 94.291 26.5861C94.2748 26.5678 94.2625 26.5537 94.2546 26.5445C94.2506 26.5399 94.2478 26.5366 94.2461 26.5347C94.2453 26.5337 94.2448 26.5331 94.2445 26.5328C94.2444 26.5327 94.2444 26.5326 94.2444 26.5327C94.2444 26.5327 94.2444 26.5327 94.2445 26.5328C94.2445 26.5328 94.2446 26.5329 94.2446 26.5329C94.2447 26.533 94.2447 26.533 93.6093 27.0722ZM95.9012 28.7601C96.1438 28.4914 96.2393 28.1635 96.2777 27.9014C96.3175 27.6289 96.308 27.3432 96.2733 27.0741C96.2039 26.537 96.0193 25.9537 95.764 25.461L94.2842 26.2277C94.4528 26.5531 94.5767 26.9497 94.6203 27.2875C94.6421 27.4558 94.6401 27.5813 94.6285 27.6602C94.6155 27.7496 94.6007 27.7135 94.6639 27.6435L95.9012 28.7601Z" fill="#071F2C"/>
<path d="M125.072 46.536L117.104 69H110.256L102.288 46.536H108.112L113.68 63.496L119.28 46.536H125.072ZM126.771 60.04C126.771 58.2053 127.112 56.5947 127.795 55.208C128.499 53.8213 129.448 52.7547 130.643 52.008C131.838 51.2613 133.171 50.888 134.643 50.888C135.902 50.888 137 51.144 137.939 51.656C138.899 52.168 139.635 52.84 140.147 53.672V51.144H145.619V69H140.147V66.472C139.614 67.304 138.867 67.976 137.907 68.488C136.968 69 135.87 69.256 134.611 69.256C133.16 69.256 131.838 68.8827 130.643 68.136C129.448 67.368 128.499 66.2907 127.795 64.904C127.112 63.496 126.771 61.8747 126.771 60.04ZM140.147 60.072C140.147 58.7067 139.763 57.6293 138.995 56.84C138.248 56.0507 137.331 55.656 136.243 55.656C135.155 55.656 134.227 56.0507 133.459 56.84C132.712 57.608 132.339 58.6747 132.339 60.04C132.339 61.4053 132.712 62.4933 133.459 63.304C134.227 64.0933 135.155 64.488 136.243 64.488C137.331 64.488 138.248 64.0933 138.995 63.304C139.763 62.5147 140.147 61.4373 140.147 60.072ZM148.99 60.072C148.99 58.216 149.363 56.5947 150.11 55.208C150.878 53.8213 151.934 52.7547 153.278 52.008C154.643 51.2613 156.2 50.888 157.95 50.888C160.19 50.888 162.056 51.4747 163.55 52.648C165.064 53.8213 166.056 55.4747 166.526 57.608H160.702C160.211 56.2427 159.262 55.56 157.854 55.56C156.851 55.56 156.051 55.9547 155.454 56.744C154.856 57.512 154.558 58.6213 154.558 60.072C154.558 61.5227 154.856 62.6427 155.454 63.432C156.051 64.2 156.851 64.584 157.854 64.584C159.262 64.584 160.211 63.9013 160.702 62.536H166.526C166.056 64.6267 165.064 66.2693 163.55 67.464C162.035 68.6587 160.168 69.256 157.95 69.256C156.2 69.256 154.643 68.8827 153.278 68.136C151.934 67.3893 150.878 66.3227 150.11 64.936C149.363 63.5493 148.99 61.928 148.99 60.072ZM168.865 60.072C168.865 58.216 169.238 56.5947 169.985 55.208C170.753 53.8213 171.809 52.7547 173.153 52.008C174.518 51.2613 176.075 50.888 177.825 50.888C180.065 50.888 181.931 51.4747 183.425 52.648C184.939 53.8213 185.931 55.4747 186.401 57.608H180.577C180.086 56.2427 179.137 55.56 177.729 55.56C176.726 55.56 175.926 55.9547 175.329 56.744C174.731 57.512 174.433 58.6213 174.433 60.072C174.433 61.5227 174.731 62.6427 175.329 63.432C175.926 64.2 176.726 64.584 177.729 64.584C179.137 64.584 180.086 63.9013 180.577 62.536H186.401C185.931 64.6267 184.939 66.2693 183.425 67.464C181.91 68.6587 180.043 69.256 177.825 69.256C176.075 69.256 174.518 68.8827 173.153 68.136C171.809 67.3893 170.753 66.3227 169.985 64.936C169.238 63.5493 168.865 61.928 168.865 60.072ZM192.58 49.288C191.62 49.288 190.83 49.0107 190.212 48.456C189.614 47.88 189.316 47.176 189.316 46.344C189.316 45.4907 189.614 44.7867 190.212 44.232C190.83 43.656 191.62 43.368 192.58 43.368C193.518 43.368 194.286 43.656 194.884 44.232C195.502 44.7867 195.812 45.4907 195.812 46.344C195.812 47.176 195.502 47.88 194.884 48.456C194.286 49.0107 193.518 49.288 192.58 49.288ZM195.3 51.144V69H189.828V51.144H195.3ZM210.645 50.952C212.736 50.952 214.4 51.6347 215.637 53C216.896 54.344 217.525 56.2 217.525 58.568V69H212.085V59.304C212.085 58.1093 211.776 57.1813 211.157 56.52C210.539 55.8587 209.707 55.528 208.661 55.528C207.616 55.528 206.784 55.8587 206.165 56.52C205.547 57.1813 205.237 58.1093 205.237 59.304V69H199.765V51.144H205.237V53.512C205.792 52.7227 206.539 52.104 207.477 51.656C208.416 51.1867 209.472 50.952 210.645 50.952ZM238.66 59.784C238.66 60.296 238.628 60.8293 238.564 61.384H226.18C226.265 62.4933 226.617 63.3467 227.236 63.944C227.876 64.52 228.654 64.808 229.572 64.808C230.937 64.808 231.886 64.232 232.42 63.08H238.244C237.945 64.2533 237.401 65.3093 236.612 66.248C235.844 67.1867 234.873 67.9227 233.7 68.456C232.526 68.9893 231.214 69.256 229.764 69.256C228.014 69.256 226.457 68.8827 225.092 68.136C223.726 67.3893 222.66 66.3227 221.892 64.936C221.124 63.5493 220.74 61.928 220.74 60.072C220.74 58.216 221.113 56.5947 221.86 55.208C222.628 53.8213 223.694 52.7547 225.06 52.008C226.425 51.2613 227.993 50.888 229.764 50.888C231.492 50.888 233.028 51.2507 234.372 51.976C235.716 52.7013 236.761 53.736 237.508 55.08C238.276 56.424 238.66 57.992 238.66 59.784ZM233.06 58.344C233.06 57.4053 232.74 56.6587 232.1 56.104C231.46 55.5493 230.66 55.272 229.7 55.272C228.782 55.272 228.004 55.5387 227.364 56.072C226.745 56.6053 226.361 57.3627 226.212 58.344H233.06ZM268.784 46.536V69H263.312V59.752H254.8V69H249.328V46.536H254.8V55.336H263.312V46.536H268.784ZM290.066 59.784C290.066 60.296 290.034 60.8293 289.97 61.384H277.586C277.671 62.4933 278.023 63.3467 278.642 63.944C279.282 64.52 280.061 64.808 280.978 64.808C282.343 64.808 283.293 64.232 283.826 63.08H289.65C289.351 64.2533 288.807 65.3093 288.018 66.248C287.25 67.1867 286.279 67.9227 285.106 68.456C283.933 68.9893 282.621 69.256 281.17 69.256C279.421 69.256 277.863 68.8827 276.498 68.136C275.133 67.3893 274.066 66.3227 273.298 64.936C272.53 63.5493 272.146 61.928 272.146 60.072C272.146 58.216 272.519 56.5947 273.266 55.208C274.034 53.8213 275.101 52.7547 276.466 52.008C277.831 51.2613 279.399 50.888 281.17 50.888C282.898 50.888 284.434 51.2507 285.778 51.976C287.122 52.7013 288.167 53.736 288.914 55.08C289.682 56.424 290.066 57.992 290.066 59.784ZM284.466 58.344C284.466 57.4053 284.146 56.6587 283.506 56.104C282.866 55.5493 282.066 55.272 281.106 55.272C280.189 55.272 279.41 55.5387 278.77 56.072C278.151 56.6053 277.767 57.3627 277.618 58.344H284.466ZM298.925 54.12C299.565 53.1387 300.365 52.3707 301.325 51.816C302.285 51.24 303.351 50.952 304.525 50.952V56.744H303.021C301.655 56.744 300.631 57.0427 299.949 57.64C299.266 58.216 298.925 59.24 298.925 60.712V69H293.453V51.144H298.925V54.12ZM315.768 69.256C314.019 69.256 312.44 68.8827 311.032 68.136C309.646 67.3893 308.547 66.3227 307.736 64.936C306.947 63.5493 306.552 61.928 306.552 60.072C306.552 58.2373 306.958 56.6267 307.768 55.24C308.579 53.832 309.688 52.7547 311.096 52.008C312.504 51.2613 314.083 50.888 315.832 50.888C317.582 50.888 319.16 51.2613 320.568 52.008C321.976 52.7547 323.086 53.832 323.896 55.24C324.707 56.6267 325.112 58.2373 325.112 60.072C325.112 61.9067 324.696 63.528 323.864 64.936C323.054 66.3227 321.934 67.3893 320.504 68.136C319.096 68.8827 317.518 69.256 315.768 69.256ZM315.768 64.52C316.814 64.52 317.699 64.136 318.424 63.368C319.171 62.6 319.544 61.5013 319.544 60.072C319.544 58.6427 319.182 57.544 318.456 56.776C317.752 56.008 316.878 55.624 315.832 55.624C314.766 55.624 313.88 56.008 313.176 56.776C312.472 57.5227 312.12 58.6213 312.12 60.072C312.12 61.5013 312.462 62.6 313.144 63.368C313.848 64.136 314.723 64.52 315.768 64.52Z" fill="#3FA6E1"/>
</svg>
